<svg viewBox="0 0 950 341" fill="none"
  xmlns="http://www.w3.org/2000/svg">

  <symbol id="logo" viewBox="0 0 950 341">
    <path d="M293.58 0L196.095 170.841L97.9747 0H293.58Z" fill="#6ABF4B" />
    <path d="M196.095 170.841L98.0581 0.26062L0 175.802L196.095 170.841Z" fill="#00BED6" />
    <path d="M294.153 340.462L196.095 170.841L98.0372 340.462H294.153Z" fill="#00586F" />
    <path d="M196.095 170.841L98.0581 340.462L0 175.802L196.095 170.841Z" fill="#007473" />
    <path d="M638.117 213.46V127.253H644.131V213.46H638.117Z" fill="currentColor" />
    <path d="M747.297 213.46V127.253H753.311V213.46H747.297Z" fill="currentColor" />
    <path d="M723.366 189.06C723.366 195.887 720.854 201.286 715.851 205.267C710.837 209.27 704.177 211.261 695.87 211.261C685.885 211.261 678.224 210.156 672.898 207.957V202.255C678.777 204.746 686.281 205.997 695.422 205.997C702.134 205.997 707.44 204.465 711.379 201.39C715.309 198.315 717.268 194.271 717.268 189.289C717.268 186.194 716.622 183.64 715.319 181.597C714.027 179.565 711.89 177.72 708.951 176.031C706.012 174.353 701.686 172.55 695.985 170.612C687.636 167.745 681.883 164.639 678.693 161.304C675.504 157.969 673.909 153.529 673.909 147.984C673.909 141.865 676.307 136.873 681.091 133.027C685.885 129.16 692.035 127.232 699.56 127.232C707.085 127.232 714.444 128.691 721.198 131.599L719.124 136.508C712.338 133.673 705.855 132.266 699.675 132.266C693.494 132.266 688.824 133.663 685.26 136.456C681.674 139.249 679.892 143.043 679.892 147.859C679.892 150.871 680.444 153.362 681.539 155.29C682.644 157.239 684.436 158.98 686.927 160.522C689.429 162.065 693.713 163.92 699.779 166.088C706.158 168.277 710.942 170.414 714.152 172.477C717.362 174.551 719.697 176.897 721.166 179.523C722.647 182.15 723.376 185.329 723.376 189.049L723.366 189.06Z" fill="currentColor" />
    <path d="M313.415 132.422C303.107 132.422 294.977 135.726 289.057 142.334C283.126 148.942 280.166 157.979 280.166 169.475C280.166 180.972 282.959 190.332 288.546 196.825C294.143 203.329 302.137 206.56 312.518 206.56C319.429 206.56 325.766 205.684 331.55 203.912V208.978C326.099 210.896 319.314 211.855 311.174 211.855C299.615 211.855 290.516 208.113 283.866 200.65C277.237 193.177 273.902 182.744 273.902 169.35C273.902 160.981 275.496 153.612 278.655 147.223C281.834 140.844 286.388 135.924 292.34 132.453C298.291 128.972 305.212 127.242 313.081 127.242C320.95 127.242 328.299 128.743 334.636 131.755L332.332 136.935C326.318 133.933 320.012 132.422 313.404 132.422H313.415Z" fill="currentColor" />
    <path d="M409.753 152.007C409.753 160.345 406.918 166.724 401.258 171.174C395.599 175.625 387.584 177.835 377.202 177.835H363.882V213.449H357.868V127.242H378.974C399.486 127.242 409.753 135.507 409.753 152.007ZM363.882 172.644H375.733C385.447 172.644 392.461 171.049 396.787 167.839C401.112 164.629 403.26 159.438 403.26 152.246C403.26 145.597 401.217 140.687 397.131 137.477C393.045 134.267 386.708 132.672 378.151 132.672H363.872V172.644H363.882Z" fill="currentColor" />
    <path d="M461.179 127.242H457.448L423.553 211.865H430.067L455.77 146.566C457.01 143.564 458.136 140.219 459.178 136.529C460.523 140.761 461.68 144.064 462.638 146.441L487.768 211.865H494.397L461.19 127.242H461.179Z" fill="currentColor" />
    <path d="M582.074 212.657H578.301L544.093 127.242H550.67L576.623 193.156C577.873 196.179 579.009 199.566 580.062 203.287C581.428 199.024 582.584 195.678 583.554 193.281L608.923 127.242H615.614L582.095 212.657H582.074Z" fill="currentColor" />
    <path d="M781.379 169.861C781.379 163.972 782.401 158.438 784.433 153.257C786.476 148.088 789.269 143.564 792.813 139.708C796.357 135.851 800.495 132.808 805.206 130.577C809.917 128.347 814.972 127.232 820.361 127.232C825.749 127.232 830.815 128.347 835.547 130.577C840.279 132.808 844.406 135.851 847.939 139.708C851.462 143.564 854.256 148.077 856.288 153.257C858.331 158.427 859.342 163.962 859.342 169.861C859.342 175.76 858.321 181.284 856.288 186.465C854.245 191.634 851.462 196.158 847.939 200.014C844.406 203.871 840.279 206.914 835.547 209.145C830.815 211.375 825.749 212.491 820.361 212.491C814.972 212.491 809.917 211.375 805.206 209.145C800.484 206.914 796.357 203.871 792.813 200.014C789.269 196.158 786.476 191.645 784.433 186.465C782.39 181.295 781.379 175.76 781.379 169.861ZM787.008 169.861C787.008 173.217 787.414 176.448 788.217 179.544C789.019 182.639 790.145 185.547 791.594 188.268C793.042 190.988 794.773 193.448 796.805 195.647C798.838 197.846 801.089 199.743 803.559 201.348C806.029 202.943 808.677 204.173 811.512 205.038C814.347 205.903 817.296 206.331 820.371 206.331C823.446 206.331 826.396 205.903 829.231 205.038C832.066 204.184 834.723 202.954 837.214 201.348C839.705 199.754 841.946 197.846 843.958 195.647C845.97 193.448 847.71 190.988 849.169 188.268C850.629 185.547 851.754 182.639 852.546 179.544C853.328 176.448 853.724 173.217 853.724 169.861C853.724 164.827 852.849 160.095 851.087 155.676C849.336 151.256 846.949 147.4 843.927 144.096C840.904 140.802 837.381 138.186 833.337 136.268C829.293 134.351 824.968 133.392 820.361 133.392C817.286 133.392 814.336 133.819 811.501 134.684C808.666 135.549 806.019 136.769 803.549 138.374C801.078 139.968 798.827 141.876 796.795 144.075C794.762 146.274 793.032 148.734 791.583 151.454C790.134 154.175 789.009 157.083 788.206 160.178C787.404 163.274 786.997 166.505 786.997 169.861H787.008Z" fill="currentColor" />
    <path d="M950 213.387H944.101C944.101 213.387 889.683 136.237 889.6 135.872V213.387H883.638V127.013H885.524C887.171 127.013 888.474 127.211 889.433 127.617C890.392 128.013 891.205 128.66 891.861 129.545C891.861 129.545 943.965 203.183 944.09 203.673V127.013H949.99V213.387H950Z" fill="currentColor" />
  </symbol>
  <use href="#logo" color="white"></use>

</svg>